<svg width="58" height="20" viewBox="0 0 58 20" fill="none" xmlns="http://www.w3.org/2000/svg">
<path d="M6.31385 7.38689C6.27613 7.03398 6.11719 6.75919 5.83702 6.56253C5.55954 6.36587 5.19855 6.26754 4.75404 6.26754C4.44154 6.26754 4.17349 6.31469 3.94989 6.40898C3.72629 6.50327 3.55523 6.63123 3.43669 6.79287C3.31816 6.95451 3.25754 7.13904 3.25485 7.34648C3.25485 7.51889 3.29391 7.66841 3.37204 7.79502C3.45286 7.92164 3.56196 8.0294 3.69935 8.1183C3.83675 8.20451 3.98895 8.27724 4.15598 8.33651C4.32301 8.39578 4.49138 8.44562 4.6611 8.48602L5.43696 8.67999C5.74946 8.75273 6.04984 8.85106 6.33809 8.97498C6.62904 9.0989 6.88901 9.25515 7.118 9.44373C7.34968 9.63231 7.53287 9.85995 7.66756 10.1266C7.80226 10.3934 7.86961 10.7059 7.86961 11.0641C7.86961 11.5491 7.74569 11.9761 7.49785 12.3451C7.25 12.7115 6.8917 12.9984 6.42295 13.2059C5.9569 13.4106 5.39251 13.513 4.7298 13.513C4.08594 13.513 3.52694 13.4133 3.0528 13.2139C2.58136 13.0146 2.21228 12.7236 1.94558 12.3411C1.68157 11.9585 1.53879 11.4925 1.51724 10.9429H2.99219C3.01374 11.2312 3.10264 11.4709 3.25889 11.6622C3.41514 11.8535 3.61853 11.9963 3.86907 12.0906C4.12231 12.1848 4.40517 12.232 4.71767 12.232C5.04364 12.232 5.3292 12.1835 5.57435 12.0865C5.8222 11.9868 6.01616 11.8494 6.15625 11.6743C6.29634 11.4965 6.36773 11.2891 6.37042 11.052C6.36773 10.8365 6.30442 10.6587 6.1805 10.5186C6.05657 10.3758 5.88281 10.2573 5.65921 10.163C5.43831 10.066 5.17969 9.97983 4.88335 9.9044L3.94181 9.66194C3.26024 9.48683 2.72144 9.22148 2.32543 8.86587C1.93211 8.50758 1.73545 8.03209 1.73545 7.43942C1.73545 6.95181 1.86746 6.52482 2.13147 6.15844C2.39817 5.79206 2.76051 5.50785 3.21848 5.3058C3.67645 5.10106 4.19504 4.99869 4.77425 4.99869C5.36153 4.99869 5.87608 5.10106 6.31789 5.3058C6.76239 5.50785 7.11126 5.78937 7.36449 6.15036C7.61773 6.50865 7.74838 6.92083 7.75647 7.38689H6.31385ZM11.8893 13.5089C11.267 13.5089 10.7296 13.3796 10.277 13.121C9.82712 12.8597 9.48094 12.4906 9.23848 12.0138C8.99603 11.5342 8.8748 10.9699 8.8748 10.3206C8.8748 9.68215 8.99603 9.1218 9.23848 8.63958C9.48363 8.15467 9.82577 7.77751 10.2649 7.50812C10.704 7.23602 11.2199 7.09998 11.8126 7.09998C12.1951 7.09998 12.5561 7.16194 12.8955 7.28586C13.2377 7.40709 13.5394 7.59567 13.8007 7.8516C14.0647 8.10752 14.2722 8.43349 14.423 8.82951C14.5739 9.22282 14.6493 9.69157 14.6493 10.2358V10.6843H9.56176V9.69831H13.2471C13.2444 9.41814 13.1838 9.16894 13.0653 8.95073C12.9467 8.72983 12.781 8.55607 12.5682 8.42945C12.3581 8.30284 12.1129 8.23953 11.8328 8.23953C11.5337 8.23953 11.2711 8.31226 11.0448 8.45774C10.8185 8.60052 10.642 8.7891 10.5154 9.02347C10.3915 9.25515 10.3282 9.50973 10.3255 9.78721V10.6479C10.3255 11.0089 10.3915 11.3187 10.5235 11.5774C10.6555 11.8333 10.84 12.0299 11.0771 12.1673C11.3142 12.302 11.5917 12.3694 11.9096 12.3694C12.1224 12.3694 12.315 12.3397 12.4874 12.2805C12.6598 12.2185 12.8093 12.1283 12.936 12.0097C13.0626 11.8912 13.1582 11.7444 13.2229 11.5693L14.5887 11.7228C14.5025 12.0838 14.3382 12.399 14.0957 12.6684C13.8559 12.9351 13.5488 13.1425 13.1744 13.2907C12.7999 13.4362 12.3716 13.5089 11.8893 13.5089ZM15.8869 15.7153V7.1808H17.3254V8.2072H17.4103C17.4857 8.05634 17.5921 7.89605 17.7295 7.72633C17.8669 7.55391 18.0528 7.40709 18.2872 7.28586C18.5216 7.16194 18.8206 7.09998 19.1843 7.09998C19.6638 7.09998 20.0962 7.22256 20.4814 7.46771C20.8693 7.71016 21.1765 8.06981 21.4027 8.54664C21.6317 9.02078 21.7462 9.60267 21.7462 10.2923C21.7462 10.9739 21.6344 11.5531 21.4108 12.0299C21.1872 12.5068 20.8828 12.8705 20.4976 13.121C20.1123 13.3715 19.6759 13.4968 19.1883 13.4968C18.8327 13.4968 18.5377 13.4375 18.3033 13.319C18.069 13.2005 17.8804 13.0577 17.7376 12.8907C17.5975 12.7209 17.4884 12.5606 17.4103 12.4098H17.3497V15.7153H15.8869ZM17.3214 10.2842C17.3214 10.6856 17.378 11.0372 17.4911 11.3389C17.607 11.6407 17.7726 11.8764 17.9881 12.0461C18.2064 12.2131 18.4704 12.2966 18.7802 12.2966C19.1034 12.2966 19.3742 12.2104 19.5924 12.038C19.8106 11.8629 19.9749 11.6245 20.0854 11.3228C20.1985 11.0184 20.2551 10.6722 20.2551 10.2842C20.2551 9.89901 20.1999 9.55688 20.0894 9.25785C19.979 8.95882 19.8147 8.72444 19.5964 8.55472C19.3782 8.385 19.1061 8.30014 18.7802 8.30014C18.4677 8.30014 18.2023 8.38231 17.9841 8.54664C17.7659 8.71097 17.6002 8.9413 17.4871 9.23764C17.3766 9.53398 17.3214 9.88285 17.3214 10.2842ZM24.785 13.513C24.3917 13.513 24.0374 13.4429 23.7223 13.3028C23.4098 13.1601 23.1619 12.9499 22.9787 12.6724C22.7982 12.395 22.708 12.0528 22.708 11.646C22.708 11.2958 22.7726 11.0062 22.9019 10.7772C23.0313 10.5483 23.2077 10.3651 23.4313 10.2277C23.6549 10.0903 23.9068 9.98656 24.187 9.91652C24.4698 9.84378 24.7621 9.79125 25.0638 9.75892C25.4275 9.72121 25.7225 9.68753 25.9488 9.6579C26.1751 9.62557 26.3394 9.57708 26.4418 9.51243C26.5469 9.44508 26.5994 9.34136 26.5994 9.20127V9.17703C26.5994 8.87261 26.5092 8.63689 26.3287 8.46986C26.1482 8.30284 25.8882 8.21932 25.5488 8.21932C25.1905 8.21932 24.9063 8.29745 24.6961 8.4537C24.4887 8.60995 24.3486 8.79448 24.2759 9.00731L22.91 8.81334C23.0178 8.43619 23.1956 8.12099 23.4434 7.86776C23.6913 7.61183 23.9943 7.42056 24.3526 7.29395C24.7109 7.16463 25.107 7.09998 25.5407 7.09998C25.8397 7.09998 26.1374 7.135 26.4337 7.20504C26.7301 7.27509 27.0008 7.39093 27.246 7.55257C27.4911 7.71151 27.6878 7.92837 27.8359 8.20316C27.9868 8.47794 28.0622 8.82142 28.0622 9.2336V13.3877H26.656V12.5351H26.6075C26.5186 12.7075 26.3933 12.8691 26.2317 13.02C26.0727 13.1681 25.872 13.288 25.6296 13.3796C25.3898 13.4685 25.1083 13.513 24.785 13.513ZM25.1649 12.4381C25.4585 12.4381 25.7131 12.3802 25.9286 12.2643C26.1441 12.1458 26.3098 11.9895 26.4256 11.7956C26.5442 11.6016 26.6034 11.3901 26.6034 11.1611V10.4297C26.5577 10.4674 26.4795 10.5025 26.3691 10.5348C26.2613 10.5671 26.1401 10.5954 26.0054 10.6196C25.8707 10.6439 25.7373 10.6654 25.6053 10.6843C25.4733 10.7032 25.3588 10.7193 25.2619 10.7328C25.0436 10.7624 24.8483 10.8109 24.6759 10.8783C24.5035 10.9456 24.3675 11.0399 24.2678 11.1611C24.1681 11.2797 24.1183 11.4332 24.1183 11.6218C24.1183 11.8912 24.2166 12.0946 24.4133 12.232C24.6099 12.3694 24.8605 12.4381 25.1649 12.4381Z" fill="white"/>
<path d="M30.7616 13.3877L28.4259 5.11183H30.0383L31.5294 11.1935H31.6061L33.1983 5.11183H34.6651L36.2613 11.1975H36.3341L37.8252 5.11183H39.4375L37.1018 13.3877H35.6228L33.9661 7.58085H33.9014L32.2406 13.3877H30.7616ZM40.4124 13.3877V7.1808H41.8752V13.3877H40.4124ZM41.1478 6.29987C40.9162 6.29987 40.7168 6.22309 40.5498 6.06954C40.3827 5.91329 40.2992 5.72606 40.2992 5.50785C40.2992 5.28694 40.3827 5.09971 40.5498 4.94615C40.7168 4.7899 40.9162 4.71178 41.1478 4.71178C41.3822 4.71178 41.5816 4.7899 41.7459 4.94615C41.9129 5.09971 41.9964 5.28694 41.9964 5.50785C41.9964 5.72606 41.9129 5.91329 41.7459 6.06954C41.5816 6.22309 41.3822 6.29987 41.1478 6.29987ZM48.2852 8.82142L46.9516 8.9669C46.9139 8.8322 46.8479 8.70558 46.7536 8.58705C46.662 8.46851 46.5381 8.37288 46.3819 8.30014C46.2256 8.2274 46.0344 8.19104 45.8081 8.19104C45.5036 8.19104 45.2477 8.25704 45.0403 8.38904C44.8355 8.52105 44.7345 8.69211 44.7372 8.90224C44.7345 9.08274 44.8005 9.22956 44.9352 9.34271C45.0726 9.45585 45.2989 9.54879 45.6141 9.62153L46.6728 9.84782C47.2601 9.97444 47.6965 10.1751 47.9821 10.4499C48.2703 10.7247 48.4158 11.0844 48.4185 11.5289C48.4158 11.9195 48.3013 12.2643 48.075 12.5633C47.8514 12.8597 47.5403 13.0914 47.1416 13.2584C46.7429 13.4254 46.2849 13.5089 45.7676 13.5089C45.0079 13.5089 44.3964 13.35 43.9331 13.0321C43.4697 12.7115 43.1936 12.2657 43.1047 11.6945L44.5311 11.5571C44.5958 11.8373 44.7332 12.0488 44.9433 12.1916C45.1534 12.3344 45.4269 12.4057 45.7636 12.4057C46.1111 12.4057 46.39 12.3344 46.6001 12.1916C46.8129 12.0488 46.9193 11.8723 46.9193 11.6622C46.9193 11.4844 46.8506 11.3376 46.7132 11.2217C46.5785 11.1059 46.3684 11.017 46.0828 10.955L45.0241 10.7328C44.4287 10.6089 43.9883 10.4001 43.7027 10.1064C43.4172 9.81011 43.2757 9.43565 43.2784 8.98306C43.2757 8.60052 43.3794 8.26916 43.5896 7.98899C43.8024 7.70612 44.0974 7.48791 44.4745 7.33435C44.8544 7.1781 45.2922 7.09998 45.7879 7.09998C46.5152 7.09998 47.0877 7.25488 47.5053 7.56469C47.9255 7.87449 48.1855 8.29341 48.2852 8.82142ZM52.3726 13.5089C51.7503 13.5089 51.2128 13.3796 50.7602 13.121C50.3103 12.8597 49.9642 12.4906 49.7217 12.0138C49.4793 11.5342 49.358 10.9699 49.358 10.3206C49.358 9.68215 49.4793 9.1218 49.7217 8.63958C49.9669 8.15467 50.309 7.77751 50.7481 7.50812C51.1872 7.23602 51.7031 7.09998 52.2958 7.09998C52.6783 7.09998 53.0393 7.16194 53.3788 7.28586C53.7209 7.40709 54.0226 7.59567 54.2839 7.8516C54.548 8.10752 54.7554 8.43349 54.9063 8.82951C55.0571 9.22282 55.1325 9.69157 55.1325 10.2358V10.6843H50.045V9.69831H53.7303C53.7276 9.41814 53.667 9.16894 53.5485 8.95073C53.43 8.72983 53.2643 8.55607 53.0515 8.42945C52.8413 8.30284 52.5962 8.23953 52.316 8.23953C52.017 8.23953 51.7543 8.31226 51.528 8.45774C51.3017 8.60052 51.1253 8.7891 50.9987 9.02347C50.8747 9.25515 50.8114 9.50973 50.8087 9.78721V10.6479C50.8087 11.0089 50.8747 11.3187 51.0067 11.5774C51.1387 11.8333 51.3233 12.0299 51.5603 12.1673C51.7974 12.302 52.0749 12.3694 52.3928 12.3694C52.6056 12.3694 52.7982 12.3397 52.9706 12.2805C53.1431 12.2185 53.2926 12.1283 53.4192 12.0097C53.5458 11.8912 53.6414 11.7444 53.7061 11.5693L55.0719 11.7228C54.9857 12.0838 54.8214 12.399 54.5789 12.6684C54.3392 12.9351 54.0321 13.1425 53.6576 13.2907C53.2831 13.4362 52.8548 13.5089 52.3726 13.5089Z" fill="#3D4875"/>
</svg>
