<svg id="b69d4873-005f-40c8-a253-b1125fbdc01e" data-name="Слой 1" xmlns="http://www.w3.org/2000/svg" width="11.29mm" height="9.17mm" viewBox="0 0 32 26"><path d="M7,3H25.4a1.23,1.23,0,0,1,1.07.61l5.37,9.19a1.2,1.2,0,0,1-.21,1.46L16.85,28.65a1.23,1.23,0,0,1-1.72,0L.37,14.28a1.19,1.19,0,0,1-.19-1.49L5.92,3.58A1.24,1.24,0,0,1,7,3ZM23,7.1V9.68H17.77v1.79c3.69.19,6.45,1,6.48,1.92v2c0,.94-2.79,1.73-6.48,1.92v4.39H14.28V17.27c-3.68-.19-6.45-1-6.47-1.92v-2c0-.94,2.79-1.73,6.47-1.92V9.68H9V7.1Zm-7,8.82c3.93,0,7.22-.66,8-1.55-.69-.75-3.15-1.34-6.29-1.51v1.88c-.56,0-1.14,0-1.74,0s-1.18,0-1.75,0V12.86c-3.13.17-5.6.76-6.28,1.51C8.8,15.26,12.09,15.92,16,15.92Z" transform="translate(0 -3)" fill="#e90128" fill-rule="evenodd"/></svg>