<svg xmlns="http://www.w3.org/2000/svg" viewBox="0 0 2842.67 2842.67"><g id="bea1893c-8252-47f7-9380-dcb33d1c8157" data-name="Слой 2"><circle cx="1421.33" cy="1421.33" r="1421.33" fill="#2644a3"/></g><g id="a042ad66-b6d4-49f3-89b4-66677d3372c5" data-name="Слой 1"><path d="M726.78,1297.66H555.7q0-42.09-9.88-56.49-15.26-21.27-84.25-21.29-67,0-88.7,12.26t-21.68,53.53q0,37.29,19.24,49.1,13.8,8.36,36.47,9.83l34.49,2.43q110.93,7.34,138.52,10.33,87.72,8.85,127.17,46.64,31,29.49,37,77.06a535.7,535.7,0,0,1,3.45,64.33q0,82.53-15.74,120.8-28.56,70.27-128.4,88.86-41.85,7.88-128,7.87-143.7,0-200.25-17.16-69.39-21.06-91.52-85.3-12.35-35.78-12.29-119.16H342.39v14.22q0,44.49,25.55,57.22,17.69,8.79,42.76,9.31h62.9q48.13,0,61.4-5,23.6-9.27,31-29.9,3.93-12.75,3.92-32.89,0-45.11-32.9-54.94-12.33-3.88-114.42-10.78-82-5.86-113.92-11.31-84-15.72-112-64.74-24.57-41.67-24.55-126.08,0-64.23,13.27-103t42.78-58.88q43.29-30.91,110.65-36.3,56.1-4.9,124.45-4.93,107.67,0,153.46,12.32,111.66,30,111.65,168.07c0,7.55-.56,18.84-1.67,33.94M1479,1762.92V1079.74h342.57q70.48,0,107.48,11.51,84.51,26.46,113.5,108.41,15,43,15,129.49,0,103.95-16.52,149.42-33,89.92-135.49,103.44-12,2-102.53,3.51l-30.52,1H1662.85v176.38Zm183.88-334.85H1777.5q54.51-2,66.4-8.47c10.86-6,18.16-17.95,21.79-35.89q3.49-17.89,3.49-53.28,0-43.35-7-64.31-9.92-29.4-47.53-35.87-7.46-1-35.67-1H1662.88ZM2450,1644.86H2204.18l-33,118.06H1980.91l205.28-683.18h277.36l207.78,683.18H2485.1Zm-36.51-133.09-86.17-296.14-83.6,296.14Z" fill="#fff"/><path d="M1225.2,1175.86c75.84,0,143.52,34.94,188,89.65l39.63-85c-62-58.6-146.34-94.73-239.4-94.73-144.88,0-268.82,87.51-319.67,211.38H816.48L770.84,1395h99.42q-1.18,13.68-1.24,27.41a332.37,332.37,0,0,0,1.69,33.25h-50l-45.62,97.86h121c52.3,120.74,174.69,205.49,317.3,205.49a348.26,348.26,0,0,0,193.78-58.33V1580.77c-44.47,50.63-109.5,82.63-182,82.63-84.75,0-159.31-43.71-202.72-109.86h253.38l45.63-97.86H985.22a246.41,246.41,0,0,1-1.44-60.67h366l45.62-97.83h-380c42-72.52,120.23-121.33,209.8-121.33" fill="#ffce33"/><path d="M1225.2,1178.79a238.55,238.55,0,0,1,185.73,88.58l3,3.65,2-4.26,39.62-85,.88-1.94-1.52-1.45c-65.15-61.59-150.89-95.5-241.43-95.5a350.74,350.74,0,0,0-196.74,59.74c-56.64,38.16-100.09,91.23-125.64,153.45l2.71-1.82H814.59l-.78,1.69-45.63,97.85-1.95,4.17h104l-2.93-3.19q-1.19,13.8-1.24,27.67c0,11,.58,22.29,1.7,33.54l2.92-3.23H818.9l-.78,1.7-45.66,97.84-1.94,4.18H896.14l-2.7-1.77C948,1680.61,1073.6,1762,1213.44,1762a351,351,0,0,0,195.41-58.8l1.29-.85V1573l-5.13,5.86a239.42,239.42,0,0,1-179.81,81.61c-80.83,0-155.69-40.6-200.27-108.52l-2.45,4.55h255.26l.79-1.69,45.63-97.87,1.95-4.17H985.2l2.92,2.52a243.51,243.51,0,0,1-1.42-60l-2.93,2.64h367.89l.78-1.69,45.62-97.85,2-4.17H1015.4l2.54,4.41c42.85-74,122.28-119.88,207.28-119.88" fill="#fff"/></g></svg>